# xmcd
#
# Track frame offsets:
# 150
# 16316
# 31179
# 45796
# 58709
# 73321
# 91081
# 110376
# 131179
# 141959
# 166109
# 180429
#
# Disc length: 2733 seconds
#
#
# Revision: 1
# Processed by: cddbd v1.5.1PL2 Copyright (c) Steve Scherf et al.
# Submitted via: FreeRIP 2.944 
#
DISCID=970aab0c
DTITLE=Elis Regina - Definitivamente MPB Elis Regina 2
DYEAR=2004
DGENRE=MPB
TTITLE0=Folhas Secas
TTITLE1=Tristeza
TTITLE2=Cartomante
TTITLE3=Casa no Campo
TTITLE4=Andança
TTITLE5=Carinhoso
TTITLE6=Preciso Aprender a Ser Só
TTITLE7=Saudosa Maloca
TTITLE8=Upa Neguinho
TTITLE9=Black is Beautiful
TTITLE10=Bala com Bala
TTITLE11=Travessia
EXTD=
EXTT0=
EXTT1=
EXTT2=
EXTT3=
EXTT4=
EXTT5=
EXTT6=
EXTT7=
EXTT8=
EXTT9=
EXTT10=
EXTT11=
PLAYORDER=
